<svg xmlns="http://www.w3.org/2000/svg">
  <defs>
    <symbol id="plus" viewBox="0 0 52.4 52.4">
      <title>Create Product</title>
      <rect x="21.5" width="10.3" height="52.4"/>
      <rect x="0" y="21" width="52.4" height="10.3"/>
    </symbol>
    <symbol id="shop" viewBox="0 0 32 32">
      <title>Shop</title>
      <path d="M30.1,5L27,1.9C25.8,0.6,24.1,0,22.5,0c-0.2,0-0.3,0-0.5,0v0h-5.9h-0.1H10v0C9.8,0,9.7,0,9.5,0C7.9,0,6.2,0.6,5,1.9L1.9,5
        c-2.5,2.5-2.5,6.5,0,9L2,14.1C3.2,15.4,4.8,16,6.5,16c1.6,0,3.3-0.6,4.5-1.9l0.3-0.3c1.1,1.3,2.8,2.2,4.6,2.2h0.1
        c1.9,0,3.5-0.9,4.6-2.2l0.3,0.3c1.2,1.2,2.9,1.9,4.5,1.9c1.6,0,3.3-0.6,4.5-1.9l0.1-0.1C32.6,11.5,32.6,7.5,30.1,5z M27.3,11.2
        L27.3,11.2c-0.5,0.5-1.1,0.8-1.8,0.8c-0.6,0-1.2-0.2-1.7-0.7L23.5,11l-2.8-2.8c-0.2-0.2-0.4-0.2-0.6,0l-2.5,3.1
        c-0.4,0.5-0.9,0.7-1.5,0.7h-0.1c-0.6,0-1.1-0.3-1.5-0.7l-2.5-3c-0.2-0.2-0.5-0.2-0.7,0L8.5,11l-0.3,0.3C7.7,11.8,7.1,12,6.5,12
        c-0.6,0-1.2-0.2-1.7-0.7l-0.1-0.1c-0.9-0.9-0.9-2.4,0-3.4l3.1-3.1C8.4,4.1,9.1,4,9.5,4C9.6,4,9.9,4,10,4h4h1.9h0.1H18h4
        c0.1,0,0.4,0,0.5,0c0.4,0,1.1,0.1,1.7,0.7l3.1,3.1C28.2,8.8,28.2,10.3,27.3,11.2z"/>
      <path d="M26,20L26,20c-1.1,0-2,0.9-2,2v5c0,0.6-0.4,1-1,1H9c-0.6,0-1-0.4-1-1v-5c0-1.1-0.9-2-2-2h0c-1.1,0-2,0.9-2,2v8
        c0,1.1,0.9,2,2,2h2h16h2c1.1,0,2-0.9,2-2v-8C28,20.9,27.1,20,26,20z"/>
    </symbol>
    <symbol id="cart" viewBox="0 0 32 32">
      <title>Cart</title>
      <path d="M32,2c0-1.1-0.9-2-2-2h-3H4H2C0.9,0,0,0.9,0,2v0c0,1.1,0.9,2,2,2h2v8v2v6v0c0,2.2,1.8,4,4,4h0h22
        c1.1,0,2-0.9,2-2v0c0-1.1-0.9-2-2-2H10c-1.1,0-2-0.9-2-2v-2h22c1.1,0,2-0.9,2-2V4.9V4V3V2L32,2C32,2,32,2,32,2L32,2z M28,12H8V4h19
        h1V12z"/>
      <circle cx="10" cy="30" r="2"/>
      <circle cx="26" cy="30" r="2"/>
    </symbol>
    <symbol id="create" viewBox="0 0 32 32">
      <title>Create a product</title>
      <path d="M16,0C7.2,0,0,7.2,0,16s7.2,16,16,16s16-7.2,16-16S24.8,0,16,0z M16,28C9.4,28,4,22.6,4,16S9.4,4,16,4
        s12,5.4,12,12S22.6,28,16,28z"/>
      <path d="M22,14h-4v-4c0-1.1-0.9-2-2-2h0c-1.1,0-2,0.9-2,2v4h-4c-1.1,0-2,0.9-2,2v0c0,1.1,0.9,2,2,2h4v4
        c0,1.1,0.9,2,2,2h0c1.1,0,2-0.9,2-2v-4h4c1.1,0,2-0.9,2-2v0C24,14.9,23.1,14,22,14z"/>
    </symbol>
    <symbol id="github" viewBox="0 0 16 16">
      <path d="M8 0C3.58 0 0 3.58 0 8c0 3.54 2.29 6.53 5.47 7.59 0.4 0.07 0.55-0.17 0.55-0.38 0-0.19-0.01-0.82-0.01-1.49-2.01 0.37-2.53-0.49-2.69-0.94-0.09-0.23-0.48-0.94-0.82-1.13-0.28-0.15-0.68-0.52-0.01-0.53 0.63-0.01 1.08 0.58 1.23 0.82 0.72 1.21 1.87 0.87 2.33 0.66 0.07-0.52 0.28-0.87 0.51-1.07-1.78-0.2-3.64-0.89-3.64-3.95 0-0.87 0.31-1.59 0.82-2.15-0.08-0.2-0.36-1.02 0.08-2.12 0 0 0.67-0.21 2.2 0.82 0.64-0.18 1.32-0.27 2-0.27 0.68 0 1.36 0.09 2 0.27 1.53-1.04 2.2-0.82 2.2-0.82 0.44 1.1 0.16 1.92 0.08 2.12 0.51 0.56 0.82 1.27 0.82 2.15 0 3.07-1.87 3.75-3.65 3.95 0.29 0.25 0.54 0.73 0.54 1.48 0 1.07-0.01 1.93-0.01 2.2 0 0.21 0.15 0.46 0.55 0.38C13.71 14.53 16 11.53 16 8 16 3.58 12.42 0 8 0z"></path>
    </symbol>
    <symbol id="bread" viewBox="0 0 77.9 105.5">
      <title>Boulangerie</title>
      <circle cx="39" cy="67" r="38" fill="#FFFFFF" />
      <polygon points="29,45 40,55 52,44 52,83 40,93 29,83" fill="#EED5A9" />
      <path d="M70.4,43.8c-0.5-0.6-1.3-0.8-2-0.3c-0.6,0.5-0.8,1.3-0.3,2c4.6,6.2,7,13.5,7,21.2
        c0,19.4-15.4,35.2-34.7,35.9v-9l11.4-12.3c0,0,0,0,0,0c0.1-0.1,0.2-0.3,0.3-0.4c0,0,0,0,0,0c0.1-0.2,0.1-0.3,0.1-0.5V67.6V54.9V42.2
        V13.4c0-0.8-0.6-1.4-1.4-1.4c-0.8,0-1.4,0.6-1.4,1.4v28.2l-7.1,7.7l2-6.3c0.1-0.3,0.1-0.6,0-0.9l-3.8-12V1.4c0-0.8-0.6-1.4-1.4-1.4
        c-0.8,0-1.4,0.6-1.4,1.4v28.7l-3.8,12c-0.1,0.3-0.1,0.6,0,0.9l2,6.3l-7.1-7.7V13.4c0-0.8-0.6-1.4-1.4-1.4c-0.8,0-1.4,0.6-1.4,1.4
        v28.8v12.7v12.7v12.7c0,0.2,0,0.3,0.1,0.5c0,0,0,0,0,0c0.1,0.2,0.1,0.3,0.3,0.4c0,0,0,0,0,0l11.4,12.3v9C18.3,101.9,2.8,86,2.8,66.7
        c0-7.6,2.4-15,7-21.2c0.5-0.6,0.3-1.5-0.3-2c-0.6-0.5-1.5-0.3-2,0.3C2.6,50.5,0,58.4,0,66.7c0,21.4,17.5,38.8,38.9,38.8
        c21.5,0,38.9-17.4,38.9-38.8C77.9,58.4,75.3,50.5,70.4,43.8z M49.3,67.1l-8.9,9.7v-8.6l8.9-9.7V67.1z M37.5,76.7l-8.9-9.7v-8.6
        l8.9,9.7V76.7z M40.4,80.9l8.9-9.7v8.6l-8.9,9.7V80.9z M49.3,54.3L40.4,64v-8.6l8.9-9.7V54.3z M38.9,35l2.4,7.6l-2.4,7.6l-2.4-7.6
        L38.9,35z M37.5,55.5V64l-8.9-9.7v-8.6L37.5,55.5z M28.6,71.2l8.9,9.7v8.6l-8.9-9.7V71.2z"/>
    </symbol>
  </defs>
</svg>




